# This file uses centimeters as units for non-parametric coordinates.

mtllib BrokenGlass.mtl
g default
v -12.033851 -10.951553 12.262348
v -4.091467 -10.643574 12.082194
v 2.330581 -9.649692 12.901509
v 10.135556 -9.705744 8.588119
v -12.117040 -4.039013 12.117040
v -4.039013 -4.039013 12.117040
v 4.039014 -4.039013 12.117040
v 10.544409 -4.039013 10.161234
v -7.457911 0.887087 8.999685
v -4.039013 4.039014 12.117040
v 4.039014 4.039014 15.828303
v 12.117040 4.039014 12.117040
v -11.974792 9.686791 9.568002
v -5.440080 9.540882 11.549422
v 2.895322 6.743012 12.529115
v 13.011944 8.043331 10.614392
v -12.834815 5.449166 2.170204
v -4.039013 12.117040 4.039013
v 5.630506 9.926833 0.719445
v 14.655117 3.197525 -1.409582
v -11.513148 11.836451 -7.050459
v -4.039013 12.117040 -4.039014
v 1.535200 14.571667 -3.890390
v 14.874236 5.966407 -4.709142
v -13.782817 7.421218 -8.066583
v -4.039013 12.117040 -12.117040
v 4.191822 8.275688 -14.790598
v 12.117040 8.650282 -12.117040
v -8.085113 4.039013 -8.443634
v -4.039013 4.039013 -6.790640
v -0.031309 5.827741 -15.249787
v 12.117040 4.039013 -15.416029
v -12.117040 -4.039014 -12.117040
v -4.039013 -4.039014 -12.117040
v 4.039014 -4.039014 -12.117040
v 12.117040 -4.039014 -12.117040
v -10.060072 -11.117142 -11.217077
v -2.531801 -10.952970 -11.636750
v 5.659070 -10.132617 -10.308325
v 12.200739 -10.760554 -9.813140
v -8.967811 -11.927052 -3.781327
v -2.062721 -14.900965 -0.743700
v 3.540621 -12.682999 -4.516954
v 11.293000 -11.423530 -1.957208
v -10.521233 -10.407066 5.517685
v -1.040853 -11.663667 1.711760
v 5.927749 -10.289488 5.291023
v 9.857737 -13.106025 4.651632
v 12.117040 -4.039013 -4.039013
v 12.117040 -4.039013 4.039014
v 9.314935 0.406374 -4.039013
v 15.053006 0.637491 4.039014
v -12.117040 -4.039013 -4.039013
v -12.117040 -4.039013 4.039014
v -12.117040 4.039014 -4.039013
v -12.117040 4.039014 4.039014
vt 0.375000 0.000000
vt 0.458333 0.000000
vt 0.541667 0.000000
vt 0.625000 0.000000
vt 0.375000 0.083333
vt 0.458333 0.083333
vt 0.541667 0.083333
vt 0.625000 0.083333
vt 0.375000 0.166667
vt 0.458333 0.166667
vt 0.541667 0.166667
vt 0.625000 0.166667
vt 0.375000 0.250000
vt 0.458333 0.250000
vt 0.541667 0.250000
vt 0.625000 0.250000
vt 0.375000 0.333333
vt 0.458333 0.333333
vt 0.541667 0.333333
vt 0.625000 0.333333
vt 0.375000 0.416667
vt 0.458333 0.416667
vt 0.541667 0.416667
vt 0.625000 0.416667
vt 0.375000 0.500000
vt 0.458333 0.500000
vt 0.541667 0.500000
vt 0.625000 0.500000
vt 0.375000 0.583333
vt 0.458333 0.583333
vt 0.541667 0.583333
vt 0.625000 0.583333
vt 0.375000 0.666667
vt 0.458333 0.666667
vt 0.541667 0.666667
vt 0.625000 0.666667
vt 0.375000 0.750000
vt 0.458333 0.750000
vt 0.541667 0.750000
vt 0.625000 0.750000
vt 0.375000 0.833333
vt 0.458333 0.833333
vt 0.541667 0.833333
vt 0.625000 0.833333
vt 0.375000 0.916667
vt 0.458333 0.916667
vt 0.541667 0.916667
vt 0.625000 0.916667
vt 0.375000 1.000000
vt 0.458333 1.000000
vt 0.541667 1.000000
vt 0.625000 1.000000
vt 0.875000 0.000000
vt 0.791667 0.000000
vt 0.708333 0.000000
vt 0.875000 0.083333
vt 0.791667 0.083333
vt 0.708333 0.083333
vt 0.875000 0.166667
vt 0.791667 0.166667
vt 0.708333 0.166667
vt 0.875000 0.250000
vt 0.791667 0.250000
vt 0.708333 0.250000
vt 0.125000 0.000000
vt 0.208333 0.000000
vt 0.291667 0.000000
vt 0.125000 0.083333
vt 0.208333 0.083333
vt 0.291667 0.083333
vt 0.125000 0.166667
vt 0.208333 0.166667
vt 0.291667 0.166667
vt 0.125000 0.250000
vt 0.208333 0.250000
vt 0.291667 0.250000
vn 0.011087 0.008197 0.999905
vn -0.018860 0.033832 0.999250
vn -0.149084 0.005707 0.988808
vn -0.089479 0.103546 0.990592
vn 0.120806 -0.011266 0.992612
vn 0.130933 -0.202888 0.970409
vn 0.396979 -0.137987 0.907396
vn 0.364148 -0.264278 0.893058
vn -0.294612 -0.007279 0.955589
vn -0.375053 0.124083 0.918661
vn 0.063404 -0.027584 0.997607
vn 0.318394 0.051776 0.946543
vn -0.358661 -0.011030 0.933403
vn -0.408435 -0.169053 0.896996
vn -0.019897 0.472085 0.881328
vn 0.203958 0.574810 0.792461
vn -0.363966 0.924136 -0.116200
vn 0.049513 0.983106 0.176213
vn -0.063647 0.966148 0.250016
vn -0.424417 0.895367 0.134862
vn 0.285798 0.942822 0.171482
vn 0.341628 0.912414 0.225370
vn 0.269368 0.962875 -0.017660
vn 0.405436 0.898040 0.170722
vn -0.211759 0.975649 0.057162
vn -0.394207 0.919000 -0.006378
vn 0.228023 0.973655 -0.000858
vn 0.484936 0.866864 0.115688
vn -0.058064 0.942412 -0.329375
vn -0.278913 0.889395 -0.362194
vn 0.280277 0.934283 -0.220366
vn 0.368706 0.911580 -0.181876
vn -0.020943 -0.405148 -0.914011
vn -0.420039 -0.232757 -0.877150
vn -0.285144 0.007637 -0.958454
vn 0.053188 0.018984 -0.998404
vn -0.125951 0.283007 -0.950812
vn -0.395849 -0.113707 -0.911249
vn 0.141260 0.398052 -0.906422
vn 0.010374 -0.155452 -0.987789
vn -0.137762 0.046095 -0.989392
vn 0.045229 0.170051 -0.984397
vn -0.105487 -0.243115 -0.964244
vn -0.018574 -0.330786 -0.943523
vn 0.036703 -0.130847 -0.990723
vn -0.025634 -0.104601 -0.994184
vn 0.049814 -0.237277 -0.970164
vn 0.019248 -0.303191 -0.952735
vn -0.144017 -0.960744 -0.237128
vn -0.015006 -0.956892 -0.290055
vn -0.019732 -0.997749 0.064085
vn -0.176330 -0.983644 -0.036765
vn 0.113927 -0.954678 -0.274972
vn 0.114833 -0.982039 -0.149709
vn 0.087863 -0.973788 -0.209803
vn -0.031121 -0.996666 -0.075422
vn 0.045095 -0.970858 0.235374
vn -0.096210 -0.989734 0.105694
vn 0.024064 -0.982861 0.182770
vn -0.130482 -0.983320 0.126717
vn 0.025769 -0.997384 0.067543
vn -0.051141 -0.998592 0.014114
vn 0.097769 -0.982166 0.160596
vn -0.104750 -0.947703 0.301473
vn 0.989763 -0.124792 0.069255
vn 0.997846 -0.035152 0.055384
vn 0.978093 0.154544 0.139466
vn 0.999396 0.021783 0.027081
vn 0.977824 -0.176762 0.112321
vn 0.974099 -0.203999 0.097548
vn 0.964368 -0.186849 0.187302
vn 0.905635 -0.299772 0.299937
vn 0.987397 -0.158106 -0.007059
vn 0.985387 -0.132589 -0.106924
vn 0.984126 -0.147689 0.098405
vn 0.961272 -0.087000 0.261509
vn 0.883436 -0.444751 -0.147438
vn 0.824056 -0.519731 -0.225414
vn 0.803069 -0.520817 -0.289533
vn 0.977822 0.112820 0.176456
vn -0.944509 -0.324728 0.049546
vn -0.946214 -0.323492 -0.005591
vn -0.992001 -0.104468 -0.070854
vn -0.992500 -0.065834 -0.103002
vn -0.968356 -0.236484 -0.079762
vn -0.997608 -0.051748 0.045838
vn -0.984873 -0.137419 -0.105552
vn -0.990847 0.084790 0.105035
vn -0.992417 0.042497 -0.115334
vn -0.951244 0.182520 -0.248640
vn -0.969765 -0.074268 0.232464
vn -0.888597 0.178223 0.422648
vn -0.976427 -0.211206 -0.044522
vn -0.912535 -0.407478 0.035233
vn -0.981603 -0.176745 0.072229
vn -0.833455 -0.375702 0.405217
s 1
g Broken_Glass
usemtl initialShadingGroup
f 1/1/1 2/2/2 6/6/3 5/5/4
f 2/2/2 3/3/5 7/7/6 6/6/3
f 3/3/5 4/4/7 8/8/8 7/7/6
f 5/5/4 6/6/3 10/10/9 9/9/10
f 6/6/3 7/7/6 11/11/11 10/10/9
f 7/7/6 8/8/8 12/12/12 11/11/11
f 9/9/10 10/10/9 14/14/13 13/13/14
f 10/10/9 11/11/11 15/15/15 14/14/13
f 11/11/11 12/12/12 16/16/16 15/15/15
s 2
f 13/13/17 14/14/18 18/18/19 17/17/20
f 14/14/18 15/15/21 19/19/22 18/18/19
f 15/15/21 16/16/23 20/20/24 19/19/22
f 17/17/20 18/18/19 22/22/25 21/21/26
f 18/18/19 19/19/22 23/23/27 22/22/25
f 19/19/22 20/20/24 24/24/28 23/23/27
f 21/21/26 22/22/25 26/26/29 25/25/30
f 22/22/25 23/23/27 27/27/31 26/26/29
f 23/23/27 24/24/28 28/28/32 27/27/31
s 3
f 25/25/33 26/26/34 30/30/35 29/29/36
f 26/26/34 27/27/37 31/31/38 30/30/35
f 27/27/37 28/28/39 32/32/40 31/31/38
f 29/29/36 30/30/35 34/34/41 33/33/42
f 30/30/35 31/31/38 35/35/43 34/34/41
f 31/31/38 32/32/40 36/36/44 35/35/43
f 33/33/42 34/34/41 38/38/45 37/37/46
f 34/34/41 35/35/43 39/39/47 38/38/45
f 35/35/43 36/36/44 40/40/48 39/39/47
s 4
f 37/37/49 38/38/50 42/42/51 41/41/52
f 38/38/50 39/39/53 43/43/54 42/42/51
f 39/39/53 40/40/55 44/44/56 43/43/54
f 41/41/52 42/42/51 46/46/57 45/45/58
f 42/42/51 43/43/54 47/47/59 46/46/57
f 43/43/54 44/44/56 48/48/60 47/47/59
f 45/45/58 46/46/57 2/50/61 1/49/62
f 46/46/57 47/47/59 3/51/63 2/50/61
f 47/47/59 48/48/60 4/52/64 3/51/63
s 5
f 44/54/65 40/53/66 36/56/67 49/57/68
f 48/55/69 44/54/65 49/57/68 50/58/70
f 4/4/71 48/55/69 50/58/70 8/8/72
f 49/57/68 36/56/67 32/59/73 51/60/74
f 50/58/70 49/57/68 51/60/74 52/61/75
f 8/8/72 50/58/70 52/61/75 12/12/76
f 51/60/74 32/59/73 28/62/77 24/63/78
f 52/61/75 51/60/74 24/63/78 20/64/79
f 12/12/76 52/61/75 20/64/79 16/16/80
s 6
f 37/65/81 41/66/82 53/69/83 33/68/84
f 41/66/82 45/67/85 54/70/86 53/69/83
f 45/67/85 1/1/87 5/5/88 54/70/86
f 33/68/84 53/69/83 55/72/89 29/71/90
f 53/69/83 54/70/86 56/73/91 55/72/89
f 54/70/86 5/5/88 9/9/92 56/73/91
f 29/71/90 55/72/89 21/75/93 25/74/94
f 55/72/89 56/73/91 17/76/95 21/75/93
f 56/73/91 9/9/92 13/13/96 17/76/95
